<svg width="150" height="150" xmlns="http://www.w3.org/2000/svg">
 <!-- Created with Method Draw - http://github.com/duopixel/Method-Draw/ -->
 <g>
  <title>background</title>
  <rect fill="#333333" id="canvas_background" height="152" width="152" y="-1" x="-1"/>
  <g display="none" overflow="visible" y="0" x="0" height="100%" width="100%" id="canvasGrid">
   <rect fill="url(#gridpattern)" stroke-width="0" y="0" x="0" height="100%" width="100%"/>
  </g>
 </g>
 <g>
  <title>Layer 1</title>
  <path stroke="#000" id="svg_1" d="m85.75733,136.990888c-16.067698,-1.275965 -24.743246,-13.203474 -8.688325,-17.572719c16.736865,-4.308132 26.690967,11.028657 8.409039,12.527723c-10.010641,1.873518 12.997209,5.010964 17.285465,1.86066c13.399286,-3.239956 11.329427,-11.67262 8.105627,-17.611494c-1.118787,-4.549764 -2.517899,-9.420683 -14.008794,-6.834906c-27.722728,1.114276 -49.670805,-12.935747 -47.466232,-26.079494c0.748462,-12.397476 21.076009,-20.888711 36.128059,-29.497859c-4.941623,-11.26292 -6.433702,-24.27468 7.891594,-34.089455c13.195265,-7.978333 19.892864,6.621366 22.1249,11.575434c4.957922,11.580125 -4.927759,23.748996 -21.377357,31.912005c1.570688,3.872039 3.116114,7.746668 4.716797,11.615647c17.383074,-1.676617 33.976019,5.661261 34.924141,14.256202c2.685961,7.761362 -7.27891,15.090989 -20.889915,18.426601c-0.223811,6.664777 7.147929,13.578144 4.499161,20.460487c-2.543751,7.115728 -18.517983,10.60508 -31.654153,9.051168l-0.000008,0zm18.147343,-30.364725c4.924905,-4.618342 -4.00818,-12.774666 -4.498645,-18.702881c0.192897,-10.337539 -21.756896,2.002484 -15.229503,7.079007c1.93492,3.003901 18.729662,8.512586 3.302361,5.115161c-16.106511,-4.815714 -15.368795,-17.2063 -0.65207,-22.437976c12.346808,-1.366253 4.805846,-9.597095 2.479401,-12.300632c-15.164508,6.904097 -32.352822,15.597738 -29.737539,26.772074c1.970001,10.473654 24.825354,16.827313 44.335995,14.475251l0,-0.000004zm10.203329,-1.999166c14.463355,-4.638493 13.98869,-16.811886 -1.835271,-20.587501c-16.88425,-4.456943 -5.319615,7.219498 -5.010246,11.663966c2.343188,1.701399 1.015866,11.615252 6.845517,8.923535zm-17.825294,-55.800236c8.896795,-5.376642 19.066792,-13.138854 12.81862,-20.247487c-13.455406,-4.43711 -20.932678,7.559239 -21.263594,12.812177c-0.122413,3.406123 -1.127203,15.146448 8.444983,7.43531l0,0l-0.000008,0z" stroke-width="1.5" fill="#005fbf"/>
 </g>
</svg>